<svg xmlns="http://www.w3.org/2000/svg" width="109.04" height="111.663" viewBox="0 0 109.04 111.663"><g id="Group_223" data-name="Group 223" transform="translate(0 0)"><path id="Path_405" data-name="Path 405" d="M4.626,86.687l-.42-.841V80.379l.42-.841.841-.42H6.519l.84.42.42.841v5.466l-.42.841-.84.42H5.467ZM2.734,75.858,0,78.593v9.251l2.734,2.734H9.252l2.734-2.734V78.593L9.252,75.858Z" fill="#141212"></path><path id="Path_406" data-name="Path 406" d="M25.965,77.541v9.251l.21,1.051-2.734,2.734h-6.2l-2.732-2.734.21-1.051V77.541l-.524-1.681h5.15l-.525,1.681v8.305l.421.841.841.42h.841l.84-.42.422-.841V77.541l-.525-1.681h4.836Z" fill="#141212"></path><path id="Path_407" data-name="Path 407" d="M37.84,79.328H36.2l-.21.21v8.831l.736,2.208H31.152l.737-2.208V79.538l-.21-.21H30.038l-2.184.736,1.409-4.205H38.62l1.408,4.205Z" fill="#141212"></path><path id="Path_408" data-name="Path 408" d="M50.681,90.576H41.534l.524-1.681V77.541l-.524-1.682h9.147L53.625,78.8v8.831ZM49.42,80.695l-.526-1.052-1.051-.525H46.476l-.21.212v7.463l.314.316h1.263l1.052-.524.524-1.052Z" fill="#141212"></path><path id="Path_409" data-name="Path 409" d="M65.347,90.576H58.828l-2.734-2.733V78.591l2.734-2.732h6.519l2.733,2.732v9.252Zm-1.472-10.2-.421-.841-.841-.42h-1.05l-.842.421-.422.841v5.465l.422.841.842.422h1.05l.841-.422.421-.841Z" fill="#141212"></path><path id="Path_410" data-name="Path 410" d="M79.8,90.576H73.283l-2.734-2.733V78.591l2.734-2.732H79.8l2.733,2.732v9.252Zm-1.473-10.2-.42-.841-.841-.42H76.017l-.843.42-.421.841v5.466l.421.841.841.422h1.052l.84-.422.421-.841Z" fill="#141212"></path><path id="Path_411" data-name="Path 411" d="M92.686,90.577l-1.577-4.732-.421-.21H89.532l-.21.21v3.049l.524,1.683H84.8l.524-1.683V77.54L84.8,75.859h9.147l2.734,2.732v4.1l-1.893,1.892,1.472,4,1.157,2ZM92.58,80.486l-.419-.844-.842-.419H89.532l-.21.21v2.628l.21.209h1.787l.842-.42.419-.841Z" fill="#141212"></path><path id="Path_412" data-name="Path 412" d="M101.828,75.858l-2.733,2.735v3.47l1.891,1.891,3.259.737.528.526v.841l-.316.631-.631.315H100.82l-2.209-.736,1.431,4.311h6.2l2.733-2.734v-4.1l-2-2-3.259-.736-.42-.42v-.42l.314-.631.631-.316h2.986l1.809.631-1.325-4Z" fill="#141212"></path><path id="Path_413" data-name="Path 413" d="M40.183,109.944H33.664l-2.733-2.733V97.959l2.733-2.733h6.519l2.734,2.733v9.252Zm-1.471-10.2-.42-.841-.841-.421H36.4l-.842.421-.42.841v5.466l.42.841.842.422h1.051l.841-.422.42-.841Z" fill="#141212"></path><path id="Path_414" data-name="Path 414" d="M62.022,96.908l-3.785,13.036H55.714L53.5,102.269l-.1-.735-.1.735-2.207,7.675H48.566L44.78,96.908l-.841-1.682h5.046l-.208,1.682,1.261,4.626.1.841.1-.841,1.786-6.308h3.153l1.788,6.307.106.841.1-.841,1.261-4.626-.209-1.681h4.626Z" fill="#141212"></path><path id="Path_415" data-name="Path 415" d="M76.422,96.908v13.036H73.583l-4.627-7.78-.419-1.051.1,1.051v6.1l.525,1.681H64.541l.524-1.681V96.908l-.629-1.682h4.52l3.681,6.2.42,1.051-.106-1.051V96.908l-.525-1.682h4.522Z" fill="#141212"></path><path id="Path_416" data-name="Path 416" d="M88.392,109.944H79.245l.524-1.681V96.908l-.524-1.682h8.83L89.4,99.22l-1.851-.631H83.936l-.168.21v1.473l.21.209h1.365l1.576-.524v4.416l-1.576-.526H83.976l-.21.21v2l.316.315h3.532l2.208-.735Z" fill="#141212"></path><path id="Path_417" data-name="Path 417" d="M99.083,109.945l-1.577-4.732-.421-.21H95.929l-.21.21v3.049l.524,1.683H91.2l.524-1.683V96.908L91.2,95.226h9.145l2.734,2.733v4.1l-1.893,1.892,1.472,3.994,1.157,2Zm-.106-10.091-.419-.841-.842-.423H95.929l-.21.21v2.629l.21.209h1.787l.842-.42.419-.841Z" fill="#141212"></path><path id="Path_418" data-name="Path 418" d="M5.748,110.065l-.8-.2v.6h2.4l5.6-1.4-1.4.9v1.1l.6.6h1.2l.8-.8v-.6l-.4-.4h-.4l.2.4-.2.4-.4.2h-.4l-.2-.4.2-.4.8-.8,1.2-.6,5.6-1.4h.4l.4.2v-1.2Zm6-13.2v.6l.4.4h.4l-.2-.4.2-.4.4-.2h.4l.2.4-.2.4-.8.8-1.2.6-5.6,1.4h-.4l-.4-.2v1.2l15.194-3.8.8.2v-.6h-2.4l-5.6,1.4,1.4-.9v-1.1l-.6-.6h-1.2Z" fill="#141212"></path><path id="Path_419" data-name="Path 419" d="M11.612,107.591l-4.24.978.238-.817v-5.147l-.238-.709,4.24-.979,1.049.807v1.286l-.715.88.81.625v1.667Zm-.857-4.616-.141-.254-.286-.077-.812.187-.1.118v.857l.1.075.812-.188.286-.209.141-.318Zm.049,2.515-.145-.253-.38-.1-.763.175-.1.119v1.048l.142.11.715-.165.38-.277.145-.32Z" fill="#141212"></path><path id="Path_420" data-name="Path 420" d="M18.26,100.145l-1.667,3.722v1.573l.332.923-2.478.572.334-1.077V104.38l-1.715-3.036-.524-.641,2.335-.54.094.646.714,1.263.1.262.1-.308.714-1.593.095-.691,2.1-.484Z" fill="#141212"></path><path id="Path_421" data-name="Path 421" d="M68.857,0,65.176,4.893l-11.55,14.92L38.394,0H17.9L43.338,33.1,22.853,59.552l-6.236,7.273h25.35l.106-5.4L53.626,46.477,65.552,61.421l.108,5.4H90.63L84.4,59.552,63.908,33.1,89.352,0Z" fill="#212121"></path><path id="Path_422" data-name="Path 422" d="M0,0H3.766V7.532H0Z" transform="translate(51.743 59.294)" fill="#212121"></path></g></svg>